# xmcd
#
# Track frame offsets: 
#        150
#        17622
#        34821
#        52475
#        67918
#        88095
#        106181
#        126692
#        139999
#        154569
#
# Disc length: 2289 seconds
#
# Revision: 0
# Processed by: cddbd v1.5.2PL0 Copyright (c) Steve Scherf et al.
# Submitted via: ExactAudioCopy v0.95b4
#
DISCID=8c08ef0a
DTITLE=Carmine Dio - Boys Night Out
DYEAR=2008
DGENRE=Country
TTITLE0=She's Cool
TTITLE1=My First love
TTITLE2=Radio Of Gold
TTITLE3=Boys Night Out
TTITLE4=Clone
TTITLE5=Mr. Devil Man
TTITLE6=God Is Up To Something
TTITLE7=I Forgot Why Your Leavin'
TTITLE8=I Thought It Was Love
TTITLE9=Like A Bullet In Your Heart
EXTD=
EXTT0=
EXTT1=
EXTT2=
EXTT3=
EXTT4=
EXTT5=
EXTT6=
EXTT7=
EXTT8=
EXTT9=
PLAYORDER=
